<?xml version="1.0" encoding="UTF-8"?>
<svg width="56" height="56" viewBox="0 0 56 56" fill="none" xmlns="http://www.w3.org/2000/svg">
  <rect width="56" height="56" rx="28" fill="#4A6CF7" fill-opacity="0.1"/>
  <g clip-path="url(#clip0_1_125)">
    <path d="M34 28C34 31.3137 31.3137 34 28 34C24.6863 34 22 31.3137 22 28C22 24.6863 24.6863 22 28 22C31.3137 22 34 24.6863 34 28Z" stroke="#4A6CF7" stroke-width="2" stroke-linecap="round" stroke-linejoin="round"/>
    <path d="M28 19V21" stroke="#4A6CF7" stroke-width="2" stroke-linecap="round" stroke-linejoin="round"/>
    <path d="M28 35V37" stroke="#4A6CF7" stroke-width="2" stroke-linecap="round" stroke-linejoin="round"/>
    <path d="M35 28H37" stroke="#4A6CF7" stroke-width="2" stroke-linecap="round" stroke-linejoin="round"/>
    <path d="M19 28H21" stroke="#4A6CF7" stroke-width="2" stroke-linecap="round" stroke-linejoin="round"/>
    <path d="M33 23L31.5 24.5" stroke="#4A6CF7" stroke-width="2" stroke-linecap="round" stroke-linejoin="round"/>
    <path d="M24.5 31.5L23 33" stroke="#4A6CF7" stroke-width="2" stroke-linecap="round" stroke-linejoin="round"/>
    <path d="M33 33L31.5 31.5" stroke="#4A6CF7" stroke-width="2" stroke-linecap="round" stroke-linejoin="round"/>
    <path d="M24.5 24.5L23 23" stroke="#4A6CF7" stroke-width="2" stroke-linecap="round" stroke-linejoin="round"/>
    <path d="M28 29C28.5523 29 29 28.5523 29 28C29 27.4477 28.5523 27 28 27C27.4477 27 27 27.4477 27 28C27 28.5523 27.4477 29 28 29Z" fill="#4A6CF7"/>
  </g>
  <defs>
    <clipPath id="clip0_1_125">
      <rect width="24" height="24" fill="white" transform="translate(16 16)"/>
    </clipPath>
  </defs>
</svg>
