<?xml version="1.0" encoding="UTF-8" standalone="no"?>
<svg
   xmlns:dc="http://purl.org/dc/elements/1.1/"
   xmlns:cc="http://creativecommons.org/ns#"
   xmlns:rdf="http://www.w3.org/1999/02/22-rdf-syntax-ns#"
   xmlns:svg="http://www.w3.org/2000/svg"
   xmlns="http://www.w3.org/2000/svg"
   viewBox="0 0 793.70135 296"
   height="296"
   width="793.70135"
   xml:space="preserve"
   id="svg2"
   version="1.1"><metadata
     id="metadata8"><rdf:RDF><cc:Work
         rdf:about=""><dc:format>image/svg+xml</dc:format><dc:type
           rdf:resource="http://purl.org/dc/dcmitype/StillImage" /></cc:Work></rdf:RDF></metadata><defs
     id="defs6"><clipPath
       id="clipPath34"
       clipPathUnits="userSpaceOnUse"><path
         id="path32"
         d="M 0,222 H 595.276 V 0 H 0 Z" /></clipPath></defs><g
     transform="matrix(1.3333333,0,0,-1.3333333,0,296)"
     id="g10"><g
       transform="translate(86.9627,182.9243)"
       id="g12"><path
         id="path14"
         style="fill:#a3b92f;fill-opacity:1;fill-rule:nonzero;stroke:none"
         d="M 0,0 H 24.651 L 32.132,-12.411 41.142,0 h 71.405 V -14.111 L 20.401,-51.513 Z" /></g><g
       transform="translate(61.4612,182.9243)"
       id="g16"><path
         id="path18"
         style="fill:#7a94b7;fill-opacity:1;fill-rule:nonzero;stroke:none"
         d="M 0,0 H 18.021 L 38.592,-54.063 0,-70.214 Z" /></g><g
       transform="translate(61.4612,103.8695)"
       id="g20"><path
         id="path22"
         style="fill:#5fc155;fill-opacity:1;fill-rule:nonzero;stroke:none"
         d="m 0,0 v -34.512 h 42.673 v 13.941 l 8.5,-13.091 h 13.771 l 7.14,12.581 v -12.751 h 35.192 L 81.775,34.852 Z" /></g><g
       transform="translate(149.8665,140.9317)"
       id="g24"><path
         id="path26"
         style="fill:#68cad9;fill-opacity:1;fill-rule:nonzero;stroke:none"
         d="M 0,0 27.202,-71.574 H 49.643 V 19.891 Z" /></g><g
       id="g28"><g
         clip-path="url(#clipPath34)"
         id="g30"><g
           transform="translate(178.3246,107.6097)"
           id="g36"><path
             id="path38"
             style="fill:#ffffff;fill-opacity:1;fill-rule:nonzero;stroke:none"
             d="m 0,0 c 0,-10.211 -8.278,-18.489 -18.489,-18.489 -10.211,0 -18.488,8.278 -18.488,18.489 0,10.211 8.277,18.489 18.488,18.489 C -8.278,18.489 0,10.211 0,0" /></g><g
           transform="translate(169.8587,107.6097)"
           id="g40"><path
             id="path42"
             style="fill:#dd493c;fill-opacity:1;fill-rule:nonzero;stroke:none"
             d="m 0,0 c 0,-5.535 -4.487,-10.023 -10.023,-10.023 -5.535,0 -10.022,4.488 -10.022,10.023 0,5.535 4.487,10.023 10.022,10.023 C -4.487,10.023 0,5.535 0,0" /></g><g
           transform="translate(18.072,69.7739)"
           id="g44"><path
             id="path46"
             style="fill:#2f45a2;fill-opacity:1;fill-rule:nonzero;stroke:none"
             d="m 0,0 6.242,0.96 15.145,7.726 3.186,2.357 14.23,10.693 0.916,0.219 3.055,15.32 3.23,19.227 4.998,-4.649 1.135,2.313 -6.133,5.827 L 44.739,59.557 44.477,57.636 41.945,38.366 38.322,23.199 23.591,11.872 19.51,9.428 5.881,2.161 Z" /></g><g
           transform="translate(15.1913,76.9757)"
           id="g48"><path
             id="path50"
             style="fill:#2f45a2;fill-opacity:1;fill-rule:nonzero;stroke:none"
             d="M 0,0 8.118,-0.786 11.959,0 l 24.443,13.094 4.452,3.667 1.309,1.309 0.786,11.348 1.833,19.38 8.381,-7.682 0.96,1.658 -8.73,9.428 -2.007,-0.611 -0.35,-2.444 L 40.505,19.379 39.108,16.586 36.577,14.229 16.673,3.492 8.904,1.222 0.436,1.309 Z" /></g><g
           transform="translate(45.7881,120.0993)"
           id="g52"><path
             id="path54"
             style="fill:#2f45a2;fill-opacity:1;fill-rule:nonzero;stroke:none"
             d="m 0,0 3.405,-4.889 16.716,-11.173 h 1.528 L 19.685,-14.971 3.666,-4.583 0.262,0.524 Z" /></g><g
           transform="translate(48.6688,121.7143)"
           id="g56"><path
             id="path58"
             style="fill:#2f45a2;fill-opacity:1;fill-rule:nonzero;stroke:none"
             d="m 0,0 2.226,-4.277 1.746,-2.445 14.273,-10.213 v 0.829 L 6.416,-7.857 4.496,-6.111 0.567,0 H 0.218 Z" /></g><g
           transform="translate(66.9134,91.5976)"
           id="g60"><path
             id="path62"
             style="fill:#2f45a2;fill-opacity:1;fill-rule:nonzero;stroke:none"
             d="M 0,0 1.091,1.309 2.095,0 2.793,2.924 3.295,5.369 2.706,-16.499 H 3.492 L 5.063,7.682 H 6.067 L 13.094,2.226 14.098,1.178 13.88,-0.393 4.758,-12.832 3.295,-14.316 v -1.572 l 1.201,0.48 10.519,14.186 0.393,1.353 -0.437,1.746 -1.659,2.139 -6.809,4.495 -0.48,1.353 0.917,1.222 0.764,1.703 0.196,1.091 0.044,1.877 -0.24,0.96 v 1.135 c 0,0 1.025,0.785 1.069,0.655 0.044,-0.131 1.004,-1.441 1.004,-1.441 0,0 1.353,-1.44 1.353,-1.571 0,-0.131 1.222,-1.484 1.222,-1.484 l 2.27,-2.139 0.96,-0.349 1.266,0.48 0.742,1.179 0.48,0.567 1.571,-1.309 0.83,-1.746 -1.397,-5.238 -4.583,-15.277 -0.611,-1.833 -2.401,-3.012 c 0,0 -1.746,-2.051 -1.877,-2.182 -0.131,-0.131 -2.444,-2.27 -2.575,-2.27 -0.131,0 -2.88,-0.829 -2.88,-0.829 l -1.746,-0.829 v -1.048 h 1.702 l 2.27,0.437 2.269,1.44 4.67,4.758 2.532,3.579 2.968,9.959 0.567,2.786 1.092,-2.444 0.829,-2.968 c 0,0 -0.218,-0.83 0,-1.528 0.218,-0.698 0.462,-2.226 0.624,-2.401 0.162,-0.174 1.078,-2.575 1.078,-2.575 l 0.742,-0.087 -1.135,4.103 -0.685,3.099 -1.017,6.067 -0.087,1.265 0.829,2.75 1.877,4.67 0.218,2.096 2.052,0.349 0.916,1.047 0.742,2.314 3.623,-4.452 4.714,-6.809 c 0,0 4.539,-3.929 4.67,-4.016 0.131,-0.087 3.797,-3.266 3.797,-3.266 l 11.349,-4.547 c 0,0 2.793,-1.091 2.924,-1.091 0.131,0 2.532,0.567 2.532,0.567 l 2.182,1.004 0.873,2.008 -10.388,11.392 -8.206,8.773 -8.293,7.289 -3.055,2.794 c 0,0 -2.75,1.876 -2.924,1.964 -0.175,0.087 -1.615,1.615 -1.615,1.615 l 1.134,0.174 4.496,-1.484 12.134,-3.535 16.324,-4.539 6.089,-1.965 0.851,0.131 c 0,0 -0.589,1.964 -0.785,1.834 -0.197,-0.131 -10.672,4.124 -10.672,4.124 l -17.939,5.26 -9.952,3.317 5.369,14.273 4.452,-8.97 3.666,-7.267 5.892,-12.112 3.143,-6.417 1.113,-1.505 11.327,-8.577 11.13,-8.119 7.922,-3.404 5.237,-2.03 4.518,-0.982 h 2.488 l 0.655,1.375 -5.696,1.048 -16.696,7.071 -7.463,5.761 -11.13,9.362 -6.744,10.018 -8.446,18.986 -4.255,7.726 -2.03,1.244 -2.946,-2.488 -0.458,-3.012 -2.096,-4.386 -2.618,-6.417 -2.685,0.131 0.066,3.798 c 0,0 -0.72,1.767 -1.048,1.571 -0.327,-0.196 -1.244,0.786 -1.244,0.786 l 0.786,6.547 17.219,-11.851 11.195,-7.66 16.761,8.053 9.166,8.708 6.809,17.415 1.964,7.268 0.262,1.702 -0.917,2.553 H 84.741 L 84.349,71.996 81.795,63.943 76.558,46.463 68.112,37.58 53.315,30.684 22.282,50.129 c 0,0 -1.178,-0.327 -1.309,-0.786 -0.131,-0.458 -0.328,-4.779 -0.328,-4.779 l -0.196,-6.394 -4.911,1.68 h -3.404 c 0,0 -2.226,-1.047 -2.553,-1.113 -0.328,-0.065 -2.75,-1.506 -2.75,-1.506 L 4.736,35.267 3.295,33.368 1.069,30.422 0.524,25.905 1.462,24.072 3.295,21.649 V 20.733 L 1.397,19.62 0.524,18.703 -0.764,17.263 V 15.691 11.567 L 0.524,10.781 1.2,10.65 1.266,9.537 1.331,8.173 h 1.31 L 3.623,7.704 2.903,6.787 0.807,4.168 -0.436,2.27 Z" /></g></g></g><text
       id="text66"
       style="font-variant:normal;font-weight:bold;font-stretch:normal;font-size:128.32350159px;font-family:'Berlin Sans FB Demi';-inkscape-font-specification:BerlinSansFBDemi-Bold;writing-mode:lr-tb;fill:#2f45a2;fill-opacity:1;fill-rule:nonzero;stroke:none"
       transform="matrix(1,0,0,-1,206.1016,75.2319)"><tspan
         id="tspan64"
         y="0"
         x="0 112.02641 217.12337 292.57758">mMap</tspan></text>
</g></svg>